<mxfile host="app.diagrams.net" modified="2024-05-08T02:15:07.781Z" agent="Mozilla/5.0 (Windows NT 10.0; Win64; x64) AppleWebKit/537.36 (KHTML, like Gecko) Chrome/123.0.0.0 Safari/537.36 OPR/109.0.0.0" etag="1bPlupytD28UXuLmQGCG" version="24.3.1" type="github">
  <diagram name="Page-1" id="1PkUpuc8EgsdJH27r8BK">
    <mxGraphModel dx="965" dy="543" grid="1" gridSize="10" guides="1" tooltips="1" connect="1" arrows="1" fold="1" page="1" pageScale="1" pageWidth="850" pageHeight="1100" math="0" shadow="0">
      <root>
        <mxCell id="0" />
        <mxCell id="1" parent="0" />
        <mxCell id="cCMaH0vCD5TPmBNRnhvu-16" value="" style="group" vertex="1" connectable="0" parent="1">
          <mxGeometry x="300" y="400" width="250" height="350" as="geometry" />
        </mxCell>
        <mxCell id="cCMaH0vCD5TPmBNRnhvu-2" value="" style="swimlane;startSize=0;" vertex="1" parent="cCMaH0vCD5TPmBNRnhvu-16">
          <mxGeometry width="250" height="300" as="geometry">
            <mxRectangle x="300" y="400" width="50" height="40" as="alternateBounds" />
          </mxGeometry>
        </mxCell>
        <mxCell id="cCMaH0vCD5TPmBNRnhvu-1" value="" style="rounded=1;whiteSpace=wrap;html=1;" vertex="1" parent="cCMaH0vCD5TPmBNRnhvu-2">
          <mxGeometry x="70" y="240" width="110" height="30" as="geometry" />
        </mxCell>
        <mxCell id="cCMaH0vCD5TPmBNRnhvu-4" value="" style="rounded=0;whiteSpace=wrap;html=1;" vertex="1" parent="cCMaH0vCD5TPmBNRnhvu-2">
          <mxGeometry x="35" y="160" width="180" height="20" as="geometry" />
        </mxCell>
        <mxCell id="cCMaH0vCD5TPmBNRnhvu-5" value="" style="rounded=0;whiteSpace=wrap;html=1;" vertex="1" parent="cCMaH0vCD5TPmBNRnhvu-2">
          <mxGeometry x="35" y="200" width="180" height="20" as="geometry" />
        </mxCell>
        <mxCell id="cCMaH0vCD5TPmBNRnhvu-7" value="" style="ellipse;whiteSpace=wrap;html=1;aspect=fixed;" vertex="1" parent="cCMaH0vCD5TPmBNRnhvu-2">
          <mxGeometry x="85" y="20" width="80" height="80" as="geometry" />
        </mxCell>
        <mxCell id="cCMaH0vCD5TPmBNRnhvu-8" value="Welcome to ******! :D" style="text;html=1;align=center;verticalAlign=middle;whiteSpace=wrap;rounded=0;strokeWidth=2;" vertex="1" parent="cCMaH0vCD5TPmBNRnhvu-2">
          <mxGeometry x="30" y="120" width="190" height="30" as="geometry" />
        </mxCell>
        <mxCell id="cCMaH0vCD5TPmBNRnhvu-11" value="Username / Mail" style="text;html=1;align=center;verticalAlign=middle;whiteSpace=wrap;rounded=0;fontStyle=2;fontColor=#A6A6A6;" vertex="1" parent="cCMaH0vCD5TPmBNRnhvu-2">
          <mxGeometry x="25" y="155" width="125" height="30" as="geometry" />
        </mxCell>
        <mxCell id="cCMaH0vCD5TPmBNRnhvu-12" value="Password" style="text;html=1;align=center;verticalAlign=middle;whiteSpace=wrap;rounded=0;fontStyle=2;fontColor=#A6A6A6;" vertex="1" parent="cCMaH0vCD5TPmBNRnhvu-2">
          <mxGeometry x="25" y="195" width="95" height="30" as="geometry" />
        </mxCell>
        <mxCell id="cCMaH0vCD5TPmBNRnhvu-13" value="Login" style="text;html=1;align=center;verticalAlign=middle;whiteSpace=wrap;rounded=0;" vertex="1" parent="cCMaH0vCD5TPmBNRnhvu-2">
          <mxGeometry x="95" y="240" width="60" height="30" as="geometry" />
        </mxCell>
        <mxCell id="cCMaH0vCD5TPmBNRnhvu-14" value="&lt;font style=&quot;font-size: 9px;&quot;&gt;&lt;u&gt;Forgot pass?&lt;/u&gt;&lt;/font&gt;" style="text;html=1;align=center;verticalAlign=middle;whiteSpace=wrap;rounded=0;fontStyle=2;fontColor=#A6A6A6;" vertex="1" parent="cCMaH0vCD5TPmBNRnhvu-2">
          <mxGeometry x="79" y="270" width="92" height="30" as="geometry" />
        </mxCell>
        <mxCell id="cCMaH0vCD5TPmBNRnhvu-15" value="&lt;font style=&quot;font-size: 9px; font-style: normal;&quot;&gt;Si no eres administrativo, accede con la url proporcionada por el tutor designado.&lt;/font&gt;" style="text;html=1;align=center;verticalAlign=middle;whiteSpace=wrap;rounded=0;fontStyle=2;fontColor=#A6A6A6;" vertex="1" parent="cCMaH0vCD5TPmBNRnhvu-16">
          <mxGeometry x="20" y="320" width="220" height="30" as="geometry" />
        </mxCell>
      </root>
    </mxGraphModel>
  </diagram>
</mxfile>
